<?xml version="1.0" encoding="UTF-8"?>
<svg id="Layer_2" data-name="Layer 2" xmlns="http://www.w3.org/2000/svg" xmlns:xlink="http://www.w3.org/1999/xlink" viewBox="0 0 117.41 99.27">
  <defs>
    <style>
      .cls-1 {
        fill: #fff;
      }

      .cls-2 {
        fill: #5d4d9b;
      }

      .cls-3 {
        fill: #f6514d;
      }

      .cls-4 {
        fill: url(#_Безымянный_градиент);
      }

      .cls-4, .cls-5, .cls-6 {
        stroke: #000;
        stroke-linecap: round;
        stroke-linejoin: round;
        stroke-width: 1.7px;
      }

      .cls-7 {
        fill: #ffbc01;
      }

      .cls-8 {
        fill: #65acfe;
      }

      .cls-5 {
        fill: none;
      }

      .cls-6 {
        fill: url(#_Безымянный_градиент-2);
      }
    </style>
    <linearGradient id="_Безымянный_градиент" data-name="Безымянный градиент" x1="28.38" y1="50.11" x2="37.13" y2="50.11" gradientUnits="userSpaceOnUse">
      <stop offset="0" stop-color="#fff"/>
      <stop offset="1" stop-color="#000"/>
    </linearGradient>
    <linearGradient id="_Безымянный_градиент-2" data-name="Безымянный градиент" x1="61" y1="41.85" x2="70.06" y2="41.85" xlink:href="#_Безымянный_градиент"/>
  </defs>
  <g id="color_geometry" data-name="color geometry">
    <path class="cls-3" d="M52.65,29.07l-20.54-20.54c5.67-5.67,14.87-5.67,20.54,0,5.67,5.67,5.67,14.87,0,20.54Z"/>
    <path class="cls-7" d="M42.38,28.33c-5.26,0-9.54-4.28-9.54-9.54s4.28-9.54,9.54-9.54,9.53,4.28,9.53,9.54-4.28,9.54-9.53,9.54Z"/>
    <polygon class="cls-8" points="64.61 75.72 35.31 75.72 35.31 36.59 49.96 21.94 64.61 36.59 64.61 75.72"/>
    <polygon class="cls-1" points="68.01 41.85 60.2 41.85 60.2 32.29 64.11 28.38 68.01 32.29 68.01 41.85"/>
    <path class="cls-3" d="M13.69,66.58c-6.62,0-11.99,5.37-11.99,11.99s5.37,11.99,11.99,11.99,11.99-5.37,11.99-11.99-5.37-11.99-11.99-11.99ZM13.69,83.26c-2.59,0-4.69-2.1-4.69-4.69s2.1-4.69,4.69-4.69,4.69,2.1,4.69,4.69-2.1,4.69-4.69,4.69Z"/>
    <circle class="cls-8" cx="83.96" cy="24.89" r="7.38"/>
    <path class="cls-7" d="M97.45,51.35c-9.24,0-16.73,7.49-16.73,16.73s7.49,16.73,16.73,16.73,16.73-7.49,16.73-16.73-7.49-16.73-16.73-16.73ZM97.45,79.34c-6.22,0-11.26-5.04-11.26-11.26s5.04-11.26,11.26-11.26,11.26,5.04,11.26,11.26-5.04,11.26-11.26,11.26Z"/>
    <path class="cls-7" d="M97.45,59.1c-4.96,0-8.97,4.02-8.97,8.97s4.02,8.97,8.97,8.97,8.97-4.02,8.97-8.97-4.02-8.97-8.97-8.97ZM97.45,72c-2.17,0-3.92-1.76-3.92-3.92s1.76-3.92,3.92-3.92,3.92,1.76,3.92,3.92-1.76,3.92-3.92,3.92Z"/>
    <rect class="cls-2" x="35.65" y="70.32" width="30.34" height="27.57" transform="translate(134.93 33.28) rotate(90)"/>
    <polygon class="cls-2" points="37.73 41.15 55.89 22.76 58.79 22.76 68.27 13.29 68.27 21.42 60.86 28.82 60.86 33.32 37.73 56.46 37.73 41.15"/>
    <path class="cls-7" d="M39.31,62.92c-3.4,0-6.17-2.77-6.17-6.17s2.77-6.17,6.17-6.17,6.17,2.77,6.17,6.17-2.77,6.17-6.17,6.17Z"/>
    <path class="cls-7" d="M49.84,47.6c-3.4,0-6.17-2.77-6.17-6.17s2.77-6.17,6.17-6.17,6.17,2.77,6.17,6.17-2.77,6.17-6.17,6.17Z"/>
  </g>
  <g id="lines">
    <g>
      <circle class="cls-5" cx="83.96" cy="24.89" r="5.46"/>
      <circle class="cls-5" cx="83.96" cy="24.89" r="2.25"/>
      <line class="cls-5" x1="78.5" y1="24.89" x2="75.9" y2="24.89"/>
      <line class="cls-5" x1="92.02" y1="24.89" x2="89.42" y2="24.89"/>
      <line class="cls-5" x1="83.96" y1="19.43" x2="83.96" y2="16.83"/>
      <line class="cls-5" x1="83.96" y1="32.95" x2="83.96" y2="30.35"/>
    </g>
    <g>
      <path class="cls-5" d="M13.69,71.67c-3.8,0-6.9,3.09-6.9,6.9s3.09,6.89,6.9,6.89,6.9-3.09,6.9-6.89-3.09-6.9-6.9-6.9Z"/>
      <path d="M14.75,66.58v2.87c4.22.49,7.57,3.84,8.06,8.06h2.87v2.12h-2.87c-.49,4.22-3.84,7.57-8.06,8.06v2.87h-2.12v-2.87c-4.22-.49-7.57-3.84-8.06-8.06H1.7v-2.12h2.87c.49-4.22,3.84-7.57,8.06-8.06v-2.87h2.12M14.75,64.88h-2.12c-.94,0-1.7.76-1.7,1.7v1.46c-3.81.99-6.78,3.95-7.77,7.77h-1.46c-.94,0-1.7.76-1.7,1.7v2.12c0,.94.76,1.7,1.7,1.7h1.46c.99,3.81,3.95,6.78,7.77,7.77v1.46c0,.94.76,1.7,1.7,1.7h2.12c.94,0,1.7-.76,1.7-1.7v-1.46c3.81-.99,6.78-3.95,7.77-7.77h1.46c.94,0,1.7-.76,1.7-1.7v-2.12c0-.94-.76-1.7-1.7-1.7h-1.46c-.99-3.81-3.95-6.78-7.77-7.77v-1.46c0-.94-.76-1.7-1.7-1.7h0Z"/>
    </g>
    <g>
      <path class="cls-5" d="M97.45,61.05c-3.87,0-7.03,3.15-7.03,7.03s3.15,7.03,7.03,7.03,7.03-3.15,7.03-7.03-3.15-7.03-7.03-7.03ZM97.45,71.72c-2.01,0-3.64-1.63-3.64-3.64s1.63-3.65,3.64-3.65,3.64,1.64,3.64,3.65-1.63,3.64-3.64,3.64Z"/>
      <path class="cls-5" d="M116.56,66.38h-4.57c-.78-6.73-6.12-12.07-12.85-12.85v-4.58h-3.38v4.58c-6.73.78-12.07,6.12-12.85,12.85h-4.57v3.38h4.57c.78,6.73,6.12,12.07,12.85,12.85v4.58h3.38v-4.58c6.73-.78,12.07-6.12,12.85-12.85h4.57v-3.38ZM97.45,79.34c-6.21,0-11.26-5.05-11.26-11.26s5.05-11.27,11.26-11.27,11.26,5.05,11.26,11.27-5.05,11.26-11.26,11.26Z"/>
    </g>
    <polyline class="cls-5" points="66.76 59.08 66.76 75.72 53.4 75.72 53.4 49.57"/>
    <polyline class="cls-5" points="42.44 59.81 42.44 75.72 37.19 75.72 37.19 64.25"/>
    <line class="cls-5" x1="42.44" y1="27.67" x2="42.44" y2="38.79"/>
    <path class="cls-5" d="M42.25,8.23s1.67-6.09,8.21-3.78l-3.03,3.02s5.44-1.85,7.28,3.33h-4.13l4.39,4.39h-2.92s2.1,1.65.45,3.66l-2.67-2.67"/>
    <path class="cls-5" d="M36.08,14.2c-.76-1.08-3.1-5.05.22-9.24l1.79,1.79,4.84-5.89v5.68"/>
    <polyline class="cls-5" points="54.1 27.04 54.1 23.81 50.27 19.98"/>
    <path class="cls-5" d="M31.79,37.98c3,.3,5.35,2.83,5.35,5.91v8.77"/>
    <line class="cls-5" x1="42.44" y1="68.94" x2="53.4" y2="68.94"/>
    <line class="cls-5" x1="38.89" y1="75.72" x2="38.89" y2="97.32"/>
    <line class="cls-5" x1="63.7" y1="75.72" x2="63.7" y2="97.32"/>
    <polyline class="cls-5" points="47.92 69.3 47.92 81.96 50.57 84.6 50.57 97.32"/>
    <path class="cls-5" d="M42.47,31.98l-10.69,6-5.87,19.5c-.86,3.23,1.57,6.39,4.91,6.39h7.74c.69,0,1.26-.56,1.26-1.26v-2.57"/>
    <polyline class="cls-5" points="39.51 53.63 43.54 49.6 41.87 47.93 35.91 53.89 35.91 61.42"/>
    <polyline class="cls-5" points="38.85 53.69 43.32 53.69 43.32 59.81 38.85 59.81"/>
    <line class="cls-4" x1="37.13" y1="50.11" x2="28.38" y2="50.11"/>
    <line class="cls-6" x1="70.06" y1="41.85" x2="61" y2="41.85"/>
    <path class="cls-5" d="M31.06,54.17c1.3,0,2.49.52,3.36,1.35l1.09,1.09"/>
    <line class="cls-5" x1="43.92" y1="24.89" x2="49.61" y2="21.94"/>
    <path d="M36.06,25.57l-2.09,1.08c-.22.11-.46-.09-.4-.32l1.31-4.85,1.18,4.08Z"/>
    <line class="cls-5" x1="39.14" y1="19.42" x2="35.29" y2="21.42"/>
    <path class="cls-5" d="M42.34,17.18c0-.53.2-1.07.61-1.47.81-.81,2.13-.81,2.95,0,.51.51.7,1.21.57,1.87-.03.13-.9,3.6-.9,3.6h-1.65v3.02c0,1.8-1,3.45-2.6,4.28l-3.85,2-2.54-9.49c-.19-.68-.3-1.4-.3-2.14,0-4.39,3.62-7.94,8.04-7.81,4.02.11,7.4,3.42,7.59,7.44.06,1.25-.18,2.44-.65,3.51v9.68"/>
    <path class="cls-5" d="M62.48,47.78l-2.47-8.93c-.8-3.04.07-6.27,2.29-8.49l1.8-1.8"/>
    <polyline class="cls-5" points="59.15 24.6 56.67 24.6 39.31 41.95 39.31 50.28"/>
    <polyline class="cls-5" points="50.84 41.08 59.15 32.77 59.15 27.38"/>
    <line class="cls-5" x1="42.98" y1="48.94" x2="45.78" y2="46.14"/>
    <polyline class="cls-5" points="59.15 32.77 56.66 32.77 56.66 24.6"/>
    <line class="cls-5" x1="49.38" y1="39.66" x2="56.78" y2="32.26"/>
    <line class="cls-5" x1="39.63" y1="49.41" x2="44.46" y2="44.57"/>
    <line class="cls-5" x1="39.63" y1="45.51" x2="56.78" y2="28.36"/>
    <polyline class="cls-5" points="57.91 21.76 57.91 26.28 64.1 20.08 66.48 17.7 66.48 20.74 57.9 29.33 57.9 24.6"/>
    <line class="cls-5" x1="63.27" y1="16.53" x2="63.27" y2="20.87"/>
    <line class="cls-5" x1="42.47" y1="34.51" x2="46.51" y2="34.51"/>
    <line class="cls-5" x1="57.91" y1="27.77" x2="57.91" y2="29.94"/>
    <path class="cls-5" d="M59.21,28.05h2.46c2.87,0,5.39,1.93,6.14,4.71l7.17,26.32h-8.11l-16.44-11.68h-.99c-3.05,0-5.52-2.47-5.52-5.52v-.62l5.19-5.19v3.03c0,1.12.9,2.02,2.02,2.02h0c1.12,0,2.02-.9,2.02-2.02v-.24s.81-.81.81-.81l1.62,1.62v3.19l6.9,4.9h2.95c.46,0,1.59.17,2.66.49"/>
  </g>
</svg>