<?xml version="1.0" encoding="UTF-8"?>
<svg id="Layer_1" xmlns="http://www.w3.org/2000/svg" version="1.1" viewBox="0 0 274 204">
  <!-- Generator: Adobe Illustrator 29.6.1, SVG Export Plug-In . SVG Version: 2.1.1 Build 9)  -->
  <defs>
    <style>
      .st0 {
        fill: #efb944;
      }

      .st1 {
        fill: #fff;
      }

      .st2, .st3 {
        fill: #84bc5d;
      }

      .st4 {
        fill: none;
        stroke: #030608;
        stroke-linecap: round;
        stroke-linejoin: round;
        stroke-width: 1.7px;
      }

      .st5 {
        fill: #030608;
      }

      .st6 {
        fill: #d7605d;
      }

      .st3 {
        display: none;
      }
    </style>
  </defs>
  <rect class="st6" x="129.32" y="3.14" width="50.19" height="50.19"/>
  <path class="st0" d="M181.39,55.21c0,18.77,15.22,33.98,33.98,33.98v-33.98h-33.98Z"/>
  <circle class="st0" cx="181.39" cy="55.21" r="8.32"/>
  <g>
    <circle class="st2" cx="94.96" cy="123.19" r="47.6"/>
    <rect class="st3" x="90.96" y="136.11" width="21.97" height="66.35" transform="translate(80.65 -27.17) rotate(24.87)"/>
    <rect class="st2" x="89.74" y="137.36" width="23.24" height="66.35" rx="6.71" ry="6.71" transform="translate(81.12 -26.81) rotate(24.87)"/>
    <rect class="st2" x="119.33" y="56.61" width="23.24" height="66.35" rx="6.71" ry="6.71" transform="translate(49.91 -46.75) rotate(24.87)"/>
    <rect class="st3" x="48.31" y="135.66" width="24.08" height="66.35" transform="translate(76.6 -9.72) rotate(24.87)"/>
    <rect class="st2" x="29.74" y="95.23" width="23.24" height="30.94" rx="6.71" ry="6.71" transform="translate(50.39 -7.13) rotate(24.87)"/>
  </g>
  <rect class="st2" x="48.73" y="135.66" width="23.24" height="66.35" rx="6.71" ry="6.71" transform="translate(76.6 -9.72) rotate(24.87)"/>
  <path class="st1" d="M111.96,103.8c0,10.55-8.55,19.1-19.1,19.1l-19.1-19.1c0-10.55,8.55-19.1,19.1-19.1s19.1,8.55,19.1,19.1Z"/>
  <path class="st1" d="M130.41,117.3c-7.46,7.46-19.55,7.46-27.01,0v-27.01c7.46-7.46,19.55-7.46,27.01,0,7.46,7.46,7.46,19.55,0,27.01Z"/>
  <g>
    <path class="st1" d="M208.69,137c0,15.33-12.43,27.76-27.76,27.76s-27.76-12.43-27.76-27.76h55.53Z"/>
    <path class="st1" d="M153.16,137.05c0-7.67,6.22-13.88,13.88-13.88s13.88,6.22,13.88,13.88l-13.88,8.83-13.88-8.83Z"/>
    <path class="st1" d="M180.92,137.05c0-7.67,6.22-13.88,13.88-13.88s13.88,6.22,13.88,13.88l-13.88,8.83-13.88-8.83Z"/>
  </g>
  <g>
    <path class="st1" d="M67.32,52.33c0,17.09-13.86,30.95-30.95,30.95s-30.95-13.86-30.95-30.95h61.9Z"/>
    <path class="st1" d="M5.42,52.39c0-8.55,6.93-15.47,15.47-15.47s15.47,6.93,15.47,15.47l-15.47,9.84-15.47-9.84Z"/>
    <path class="st1" d="M36.37,52.39c0-8.55,6.93-15.47,15.47-15.47s15.47,6.93,15.47,15.47l-15.47,9.84-15.47-9.84Z"/>
  </g>
  <path class="st4" d="M51.93,121.83c-.02.59-.04,1.18-.04,1.77,0,9.66,3.18,18.57,8.55,25.76"/>
  <path class="st4" d="M107.95,82.52c-4.1-1.29-8.46-1.99-12.99-1.99-14.6,0-27.5,7.26-35.29,18.37"/>
  <path class="st4" d="M80.34,164.13c4.56,1.65,9.49,2.55,14.62,2.55,23.79,0,43.07-19.28,43.07-43.07,0-4.4-.66-8.65-1.89-12.64"/>
  <path class="st4" d="M99.56,130.27c-3.14-11.55-13.7-20.04-26.24-20.04-2.86,0-5.62.44-8.22,1.26"/>
  <line class="st4" x1="82.05" y1="160.52" x2="66.51" y2="194.72"/>
  <line class="st4" x1="61.81" y1="146.27" x2="42.5" y2="188.76"/>
  <line class="st4" x1="125.9" y1="153.53" x2="109.05" y2="191.63"/>
  <path class="st4" d="M147.33,77.2l1.8-3.97c1.25-2.75.03-6-2.72-7.25-2.76-1.25-6-.03-7.25,2.72l-1.79,3.95"/>
  <path class="st4" d="M137.03,114.3l17.5-38.52c2.63-5.78.07-12.6-5.71-15.23-5.79-2.63-12.6-.07-15.23,5.71l-9.31,20.48"/>
  <line class="st4" x1="95.77" y1="166.86" x2="84.14" y2="191.63"/>
  <path class="st4" d="M137.62,117.57l-3.06,4.82c-9.55,15.07-29.3,19.9-44.73,10.96l-24.72-14.39"/>
  <path class="st4" d="M85.39,72.91c-1.13.57-2.41.89-3.76.89-4.62,0-8.36-3.74-8.36-8.36s3.74-8.36,8.36-8.36,8.36,3.74,8.36,8.36v15.37"/>
  <line class="st4" x1="81.63" y1="73.81" x2="81.63" y2="82.65"/>
  <path class="st4" d="M186.12,138.46c0-5.38,4.36-9.74,9.74-9.74h0c5.38,0,9.74,4.36,9.74,9.74v4.92c0,11.03-9.01,19.36-19.25,19.36-9,0-15.19-2.94-20.83-7.37-5.68-4.46-9.26-11.29-9.26-18.79h0c0-4.34,3.52-7.85,7.85-7.85h0c4.34,0,7.85,3.52,7.85,7.85h0v-.77c0-3.91,3.17-7.08,7.08-7.08h0c3.91,0,7.08,3.17,7.08,7.08v2.66"/>
  <path class="st4" d="M18.23,48.92c-2.51-1.5-6.39-1.57-8.69,1.64s-1.71,8.8,4.79,15.86c.37.4.85.83,1.29,1.22,6.86,6.21,15.81,9.68,25.11,9.68h0c12.03,0,21.79-9.75,21.79-21.79v-4.4c0-5.38-4.36-9.74-9.74-9.74h0c-5.38,0-9.74,4.36-9.74,9.74v-7.87c0-2.94-2.38-5.32-5.32-5.32h0c-2.94,0-5.32,2.38-5.32,5.32v1.75c0-3.91-3.17-7.08-7.08-7.08h0c-3.91,0-7.08,3.17-7.08,7.08v3.89h0Z"/>
  <g>
    <polygon class="st4" points="133.9 7.72 174.92 7.72 178.39 52.22 133.9 48.75 133.9 7.72"/>
    <line class="st4" x1="133.9" y1="7.72" x2="178.39" y2="52.22"/>
    <line class="st4" x1="174.92" y1="7.72" x2="133.9" y2="48.75"/>
    <g>
      <path class="st4" d="M186.18,57.01h0c8.24,8.24,21.6,8.24,29.84,0"/>
      <path class="st4" d="M185.12,57.76h0c6.18,10.89,20.02,14.7,30.9,8.52"/>
      <path class="st4" d="M184.06,58.51h0c4.12,13.53,18.43,21.16,31.96,17.04"/>
      <path class="st4" d="M183,59.26h0c2.06,16.18,16.84,27.62,33.02,25.56"/>
      <path class="st4" d="M181.94,60.01h0c0,18.82,15.26,34.08,34.08,34.08"/>
    </g>
    <circle class="st4" cx="181.39" cy="55.21" r="4.24"/>
  </g>
  <path class="st4" d="M64.42,101.06l-12.01-5.46c-5.45-2.47-11.87-.07-14.34,5.38l-3.91,8.6c-2.47,5.45-.07,11.87,5.38,14.34h0c5.45,2.47,11.87.07,14.34-5.38l1.82-4.01"/>
  <path class="st4" d="M87.53,132.01l-5.44,2.79c-2.95,1.52-6.46-.63-6.46-3.94v-5.77"/>
  <path class="st4" d="M105.69,137.91l-4.36,4.28c-2.37,2.32-6.35,1.32-7.34-1.85l-1.71-5.51"/>
  <path class="st4" d="M127.81,130.07l2.92,1.82c2.62,1.63,6.05-.03,6.39-3.09l.69-6.23"/>
  <ellipse class="st5" cx="120.6" cy="92.33" rx="3.65" ry="5.22" transform="translate(-29.97 112.32) rotate(-45)"/>
  <ellipse class="st5" cx="108.03" cy="95.76" rx="3.65" ry="5.22" transform="translate(-36.07 104.43) rotate(-45)"/>
  <path class="st4" d="M115.53,117.29c6.53,2.93,13.25,2.64,17.28-1.39,5.86-5.86,3.81-17.42-4.58-25.81-8.39-8.39-19.95-10.44-25.81-4.58-.62.62-1.15,1.3-1.59,2.03"/>
  <path class="st4" d="M96.25,122.72c6.38,2.36,12.81,1.72,16.84-2.31,1.81-1.81,2.94-4.11,3.41-6.67"/>
  <path class="st4" d="M69.9,110.41c-.46-1.7-.7-3.48-.7-5.32,0-11.3,9.16-20.46,20.46-20.46,4,0,7.84.89,10.99,2.88l3.21,1.94"/>
  <path class="st4" d="M119.42,74.5c4.53-2.68,9.82-4.22,15.47-4.22,7.03,0,13.49,2.38,18.65,6.38l2.73,2.24c4.88,4.01,12.18.13,11.58-6.16l-.13-1.4c-1.1-8.07-5.36-15.14-11.5-19.91-.48-.37-.97-.73-1.48-1.08"/>
</svg>